{"title":"Run Raja Run (Telugu) 2014 CAM XviD - FirstOnNet [MVR]","uid":10705044,"size":646055807,"categoryP":"video","categoryS":"movies","magnet":"?xt=urn:btih:5fc49943b4cbcbd8b8c0302f1c08623010fd77e1&amp;dn=Run+Raja+Run+%28Telugu%29+2014+CAM+XviD+-+FirstOnNet+%5BMVR%5D&amp;tr=udp%3A%2F%2Ftracker.openbittorrent.com%3A80&amp;tr=udp%3A%2F%2Fopen.demonii.com%3A1337&amp;tr=udp%3A%2F%2Ftracker.coppersurfer.tk%3A6969&amp;tr=udp%3A%2F%2Fexodus.desync.com%3A6969","seeders":12,"leechers":0,"uploader":"InMp3HitZ","files":2,"time":1407272309,"description":"SCREENS:\n &lt;a href=&quot;\nhttp://s18.postimg.org/esiquk5bd/Run_Raja_Run_Telugu_2014_CAM_Xvi_D_First_On_Net.png&quot; rel=&quot;nofollow&quot; target=&quot;_NEW&quot;&gt;\nhttp://s18.postimg.org/esiquk5bd/Run_Raja_Run_Telugu_2014_CAM_Xvi_D_First_On_Net.png&lt;/a&gt;\n\nINFO:\n\nComplete name                            : D:RealRun Raja Run (Telugu) 2014 CAM XviD - FirstOnNet [MVR]Run Raja Run (Telugu) 2014 CAM XviD - FirstOnNet [MVR].flv\nFormat                                   : Flash Video\nFile size                                : 613 MiB\nDuration                                 : 2h 8mn\nOverall bit rate                         : 667 Kbps\nTagging application                      : Yet Another Metadata Injector for FLV - Version 1.9\n\nVideo\nFormat                                   : AVC\nFormat/Info                              : Advanced Video Codec\nFormat profile                           : &lt;a class=&quot;__cf_email__&quot; href=&quot;/cdn-cgi/l/email-protection&quot; data-cfemail=&quot;d49cbdb3bc9498e7fae4&quot;&gt;[email&amp;#160;protected]&lt;/a&gt;&lt;script cf-hash='f9e31' type=&quot;text/javascript&quot;&gt;\n/* &lt;![CDATA[ */!function(){try{var t=&quot;currentScript&quot;in document?document.currentScript:function(){for(var t=document.getElementsByTagName(&quot;script&quot;),e=t.length;e--;)if(t[e].getAttribute(&quot;cf-hash&quot;))return t[e]}();if(t&amp;&amp;t.previousSibling){var e,r,n,i,c=t.previousSibling,a=c.getAttribute(&quot;data-cfemail&quot;);if(a){for(e=&quot;&quot;,r=parseInt(a.substr(0,2),16),n=2;a.length-n;n+=2)i=parseInt(a.substr(n,2),16)^r,e+=String.fromCharCode(i);e=document.createTextNode(e),c.parentNode.replaceChild(e,c)}}}catch(u){}}();/* ]]&gt; */&lt;/script&gt;\nFormat settings, CABAC                   : Yes\nFormat settings, ReFrames                : 4 frames\nCodec ID                                 : 7\nDuration                                 : 2h 8mn\nBit rate                                 : 504 Kbps\nWidth                                    : 640 pixels\nHeight                                   : 480 pixels\nDisplay aspect ratio                     : 16:9\nFrame rate mode                          : Constant\nFrame rate                               : 24.000 fps\nColor space                              : YUV\nChroma subsampling                       : 4:2:0\nBit depth                                : 8 bits\nScan type                                : Progressive\nBits/(Pixel*Frame)                       : 0.068\nStream size                              : 477 MiB (78%)\nWriting library                          : x264 core 138\nEncoding settings                        : cabac=1 / ref=2 / deblock=1:0:0 / analyse=0x3:0x113 / me=hex / subme=4 / psy=1 / psy_rd=1.00:0.00 / mixed_ref=0 / me_range=16 / chroma_me=1 / trellis=1 / 8x8dct=1 / cqm=0 / deadzone=21,11 / fast_pskip=1 / chroma_qp_offset=0 / threads=18 / lookahead_threads=3 / sliced_threads=0 / nr=0 / decimate=1 / interlaced=0 / bluray_compat=0 / constrained_intra=0 / bframes=3 / b_pyramid=2 / b_adapt=1 / b_bias=0 / direct=1 / weightb=1 / open_gop=0 / weightp=1 / keyint=250 / keyint_min=24 / scenecut=40 / intra_refresh=0 / rc_lookahead=20 / rc=crf / mbtree=1 / crf=26.0 / qcomp=0.60 / qpmin=0 / qpmax=69 / qpstep=4 / vbv_maxrate=1200 / vbv_bufsize=4000 / crf_max=0.0 / nal_hrd=none / ip_ratio=1.40 / aq=1:1.00\n\nAudio\nFormat                                   : AAC\nFormat/Info                              : Advanced Audio Codec\nFormat profile                           : LC\nCodec ID                                 : 10\nDuration                                 : 2h 8mn\nBit rate                                 : 139 Kbps\nChannel(s)                               : 2 channels\nChannel positions                        : Front: L R\nSampling rate                            : 44.1 KHz\nCompression mode                         : Lossy\nDelay relative to video                  : 60ms\nStream size                              : 134 MiB (22%)\n","torrent":{"xt":"urn:btih:5fc49943b4cbcbd8b8c0302f1c08623010fd77e1","amp;dn":"Run+Raja+Run+%28Telugu%29+2014+CAM+XviD+-+FirstOnNet+%5BMVR%5D","amp;tr":["udp%3A%2F%2Ftracker.openbittorrent.com%3A80","udp%3A%2F%2Fopen.demonii.com%3A1337","udp%3A%2F%2Ftracker.coppersurfer.tk%3A6969","udp%3A%2F%2Fexodus.desync.com%3A6969"],"infoHash":"5fc49943b4cbcbd8b8c0302f1c08623010fd77e1","infoHashBuffer":{"type":"Buffer","data":[95,196,153,67,180,203,203,216,184,192,48,47,28,8,98,48,16,253,119,225]},"announce":[],"urlList":[]}}